<svg width="84" height="90" viewBox="0 0 84 90" fill="none" xmlns="http://www.w3.org/2000/svg">
<path d="M51.4947 1.56208C50.786 0.982885 49.9695 0.550006 49.0924 0.288503C48.2153 0.0269997 47.295 -0.057934 46.3848 0.0386178C45.4747 0.13517 44.5927 0.41129 43.79 0.850995C42.9872 1.2907 42.2797 1.88526 41.7083 2.60025L21.6647 27.71H30.5238L47.1137 6.91902L52.4429 11.2724L39.0852 27.71H47.9996L57.8068 15.6396L69.6972 25.3499L67.6348 27.71H69.7111C71.7751 27.7079 73.8278 28.0134 75.8017 28.6167C76.5556 27.2022 76.7953 25.5699 76.4798 23.9984C76.1642 22.4269 75.313 21.0137 74.0714 19.9999L51.4947 1.56208ZM7.42111 31.1706C7.42111 30.2528 7.7857 29.3726 8.43468 28.7236C9.08366 28.0746 9.96387 27.71 10.8817 27.71H14.7436L20.2459 20.7889H10.8817C8.12827 20.7889 5.48766 21.8827 3.54072 23.8296C1.59378 25.7766 0.5 28.4172 0.5 31.1706V72.6972C0.5 77.2862 2.32297 81.6872 5.56786 84.9321C8.81276 88.177 13.2138 90 17.8028 90H69.7111C73.3823 90 76.9031 88.5416 79.499 85.9457C82.0949 83.3498 83.5533 79.829 83.5533 76.1578V48.4734C83.5533 44.8022 82.0949 41.2813 79.499 38.6854C76.9031 36.0895 73.3823 34.6311 69.7111 34.6311H10.8817C9.96387 34.6311 9.08366 34.2665 8.43468 33.6176C7.7857 32.9686 7.42111 32.0884 7.42111 31.1706ZM59.3294 62.3156H66.2505C67.1683 62.3156 68.0485 62.6802 68.6975 63.3291C69.3465 63.9781 69.7111 64.8583 69.7111 65.7761C69.7111 66.6939 69.3465 67.5741 68.6975 68.2231C68.0485 68.8721 67.1683 69.2367 66.2505 69.2367H59.3294C58.4116 69.2367 57.5314 68.8721 56.8824 68.2231C56.2335 67.5741 55.8689 66.6939 55.8689 65.7761C55.8689 64.8583 56.2335 63.9781 56.8824 63.3291C57.5314 62.6802 58.4116 62.3156 59.3294 62.3156Z" fill="white"/>
</svg>
