<svg width="70" height="70" viewBox="0 0 70 70" fill="none" xmlns="http://www.w3.org/2000/svg">
<path fill-rule="evenodd" clip-rule="evenodd" d="M0 35C0 25.7174 3.68749 16.815 10.2513 10.2513C16.815 3.68749 25.7174 0 35 0C44.2826 0 53.185 3.68749 59.7487 10.2513C66.3125 16.815 70 25.7174 70 35C70 44.2826 66.3125 53.185 59.7487 59.7487C53.185 66.3125 44.2826 70 35 70C25.7174 70 16.815 66.3125 10.2513 59.7487C3.68749 53.185 0 44.2826 0 35ZM32.6667 35V14H37.3333V34.034L50.652 47.348L47.348 50.652L33.348 36.652C33.1312 36.4351 32.9595 36.1775 32.8426 35.894C32.7256 35.6105 32.6659 35.3067 32.6667 35Z" fill="white"/>
</svg>
