<svg width="67" height="73" viewBox="0 0 67 73" fill="none" xmlns="http://www.w3.org/2000/svg">
<path d="M28.3333 1.65632L3.33333 20.4063C1.25 21.9897 0 24.448 0 27.073V64.573C0 69.1563 3.75 72.9063 8.33333 72.9063H58.3333C62.9167 72.9063 66.6667 69.1563 66.6667 64.573V27.073C66.6667 24.448 65.4167 21.9897 63.3333 20.4063L38.3333 1.65632C36.8882 0.580845 35.1348 0 33.3333 0C31.5319 0 29.7785 0.580845 28.3333 1.65632ZM35.4167 37.4897C35.4167 40.948 32.625 43.7397 29.1667 43.7397V58.323C29.1667 59.4897 28.25 60.4063 27.0833 60.4063C25.9167 60.4063 25 59.4897 25 58.323V43.7397C21.5417 43.7397 18.75 40.948 18.75 37.4897V27.073C18.75 25.9063 19.6667 24.9897 20.8333 24.9897C22 24.9897 22.9167 25.9063 22.9167 27.073V37.4897H25V27.073C25 25.9063 25.9167 24.9897 27.0833 24.9897C28.25 24.9897 29.1667 25.9063 29.1667 27.073V37.4897H31.25V27.073C31.25 25.9063 32.1667 24.9897 33.3333 24.9897C34.5 24.9897 35.4167 25.9063 35.4167 27.073V37.4897ZM43.75 60.4063C42.5833 60.4063 41.6667 59.4897 41.6667 58.323V45.823H39.5833C38.4167 45.823 37.5 44.9063 37.5 43.7397V33.323C37.5 29.6563 39.875 26.5313 43.1667 25.448C44.4583 24.9897 45.8333 26.0313 45.8333 27.448V58.323C45.8333 59.4897 44.9167 60.4063 43.75 60.4063Z" fill="white"/>
</svg>
