<svg width="63" height="91" viewBox="0 0 63 91" fill="none" xmlns="http://www.w3.org/2000/svg">
<path id="Exclude" fill-rule="evenodd" clip-rule="evenodd" d="M31.1538 90.5C31.1538 90.5 62.3077 48.8923 62.3077 31.6538C62.3077 23.3913 59.0254 15.4672 53.1829 9.62475C47.3405 3.78227 39.4164 0.5 31.1538 0.5C22.8913 0.5 14.9672 3.78227 9.12475 9.62475C3.28227 15.4672 0 23.3913 0 31.6538C0 48.8923 31.1538 90.5 31.1538 90.5ZM41.5385 31.6537C41.5385 37.3889 36.8891 42.0383 31.1538 42.0383C25.4186 42.0383 20.7692 37.3889 20.7692 31.6537C20.7692 25.9184 25.4186 21.269 31.1538 21.269C36.8891 21.269 41.5385 25.9184 41.5385 31.6537Z" fill="white"/>
</svg>
