<svg width="97" height="91" viewBox="0 0 97 91" fill="none" xmlns="http://www.w3.org/2000/svg">
<path d="M48.3711 63.1833C49.7416 63.1833 50.8913 62.7189 51.82 61.7902C52.7487 60.8614 53.2115 59.7134 53.2082 58.3461C53.2082 56.9756 52.7439 55.826 51.8152 54.8973C50.8864 53.9686 49.7384 53.5058 48.3711 53.509C47.0006 53.509 45.851 53.9734 44.9223 54.9021C43.9935 55.8308 43.5308 56.9788 43.534 58.3461C43.534 59.7167 43.9984 60.8663 44.9271 61.795C45.8558 62.7237 47.0038 63.1865 48.3711 63.1833ZM48.3711 43.8348C49.7416 43.8348 50.8913 43.3704 51.82 42.4417C52.7487 41.513 53.2115 40.365 53.2082 38.9977V19.6492C53.2082 18.2787 52.7439 17.1291 51.8152 16.2004C50.8864 15.2717 49.7384 14.8089 48.3711 14.8121C47.0006 14.8121 45.851 15.2765 44.9223 16.2052C43.9935 17.1339 43.5308 18.2819 43.534 19.6492V38.9977C43.534 39.6426 43.6549 40.2682 43.8968 40.8745C44.1387 41.4807 44.4821 42.0031 44.9271 42.4417C45.3689 42.8867 45.8913 43.2302 46.4943 43.472C47.0974 43.7139 47.723 43.8348 48.3711 43.8348ZM19.3485 77.6946L8.2231 88.8199C6.69135 90.3517 4.93709 90.6951 2.96032 89.8503C0.983554 89.0054 -0.00321686 87.493 7.87803e-06 85.313V9.97501C7.87803e-06 7.3146 0.948082 5.03632 2.84423 3.14017C4.74038 1.24403 7.01705 0.297565 9.67423 0.300789H87.068C89.7284 0.300789 92.0067 1.24886 93.9029 3.14501C95.799 5.04116 96.7455 7.31783 96.7423 9.97501V68.0204C96.7423 70.6808 95.7942 72.9591 93.898 74.8552C92.0019 76.7514 89.7252 77.6978 87.068 77.6946H19.3485Z" fill="white"/>
</svg>
