<svg width="100" height="70" viewBox="0 0 100 70" fill="none" xmlns="http://www.w3.org/2000/svg">
<g id="Fast Deliveru MotoBoy">
<path id="Vector" d="M85 10C85 4.5 80.5 0 75 0H65C62.25 0 60 2.25 60 5C60 7.75 62.25 10 65 10H75V23.25L57.6 45H40V25C40 22.25 37.75 20 35 20H20C8.95 20 0 28.95 0 40V50C0 52.75 2.25 55 5 55H10C10 63.3 16.7 70 25 70C33.3 70 40 63.3 40 55H57.6C60.65 55 63.5 53.6 65.4 51.25L82.8 29.5C84.25 27.7 85 25.5 85 23.25V10ZM25 60C22.25 60 20 57.75 20 55H30C30 57.75 27.75 60 25 60Z" fill="white"/>
<path id="Vector_2" d="M20 5H35C37.75 5 40 7.25 40 10C40 12.75 37.75 15 35 15H20C17.25 15 15 12.75 15 10C15 7.25 17.25 5 20 5ZM85 40C76.7 40 70 46.7 70 55C70 63.3 76.7 70 85 70C93.3 70 100 63.3 100 55C100 46.7 93.3 40 85 40ZM85 60C82.25 60 80 57.75 80 55C80 52.25 82.25 50 85 50C87.75 50 90 52.25 90 55C90 57.75 87.75 60 85 60Z" fill="white"/>
</g>
</svg>
