<svg width="90" height="90" viewBox="0 0 90 90" fill="none" xmlns="http://www.w3.org/2000/svg">
<path id="Pizza" d="M44.99 7.81165e-08C36.4626 0.0172932 28.1166 2.46334 20.9289 7.0518L22.6315 9.51591C29.3484 5.25564 37.1318 2.9936 45.0835 2.9936C50.1914 2.9936 55.2618 3.92536 60.0328 5.74771L61.2116 2.99547C56.0651 1.01511 50.5979 -0.000325185 45.0835 7.81165e-08H44.99ZM64.3174 4.32575L63.1387 7.07799C73.2982 11.9258 81.0816 20.6558 84.73 31.3018L87.5927 30.4412C84.8984 18.2423 77.1151 8.47563 64.3174 4.32575ZM44.9713 6.5485C37.7866 6.56908 30.733 8.61034 24.6522 12.4403L44.728 41.4427C50.5656 31.0025 54.9624 20.1133 58.6296 9.01822C54.3076 7.38484 49.7049 6.5485 45.0835 6.5485H44.9713ZM50.472 8.21931L54.0456 12.6835L51.4262 14.7884L47.8526 10.3223L50.472 8.21931ZM18.1598 8.9677C4.1423 16.5022 1.04767 27.9153 0.404043 40.4136L3.3939 40.6007C4.58947 29.0192 10.5561 18.4481 19.8624 11.4299L18.1598 8.9677ZM38.7596 10.2905C40.2938 10.2905 41.7157 10.6872 42.857 11.4505C43.9984 12.212 44.9151 13.4618 44.9151 14.968C44.9151 16.4835 43.9984 17.7184 42.857 18.4855C41.7157 19.2526 40.2938 19.6455 38.7596 19.6455C37.2253 19.6455 35.8034 19.2526 34.6621 18.4855C33.5208 17.7184 32.604 16.4835 32.604 14.968C32.604 13.4618 33.5208 12.212 34.6621 11.4505C35.8034 10.6872 37.2253 10.2905 38.7596 10.2905ZM61.7354 10.3485C58.3115 21.4417 53.9334 32.1438 48.0584 42.2472L60.8374 38.4303C60.2386 37.5136 59.9019 36.391 59.9019 35.2122C59.9019 32.4057 61.8664 29.8237 64.6542 29.8237C67.442 29.8237 69.4065 32.4057 69.4065 35.2122C69.4065 35.4367 69.3878 35.6613 69.3691 35.9045L81.3248 32.3309C77.9757 22.6952 70.9221 14.7772 61.7354 10.3485ZM38.7596 13.6583C37.8241 13.6583 37.0195 13.9277 36.5331 14.2495C36.0466 14.5695 35.9718 14.8202 35.9718 14.968C35.9718 15.1158 36.0466 15.3665 36.5331 15.6865C37.0195 16.0158 37.8241 16.2777 38.7596 16.2777C39.6951 16.2777 40.4996 16.0158 40.986 15.6865C41.4725 15.3665 41.5473 15.1158 41.5473 14.968C41.5473 14.8202 41.4725 14.5695 40.986 14.2495C40.4996 13.9277 39.6951 13.6583 38.7596 13.6583ZM21.8831 14.3543C13.4711 20.7494 8.06579 30.3289 6.94506 40.8252C18.665 40.9375 30.3588 41.162 41.7344 42.9956L38.1608 37.8316L34.6995 39.7213L33.0904 36.7652L36.2337 35.0438L25.569 19.6829L21.247 23.1069L19.1515 20.45L23.6419 16.8951L21.8831 14.3543ZM65.5897 16.9326L67.8723 20.6933L64.991 22.452L62.7084 18.6913L65.5897 16.9326ZM45.6635 21.2546L47.1229 24.2856L41.4725 26.9611L40.0131 23.9301L45.6635 21.2546ZM20.2741 25.2585C23.4548 25.2585 25.8122 28.1773 25.8122 31.4328C25.8122 34.6883 23.4548 37.6071 20.2741 37.6071C17.0934 37.6071 14.7359 34.6883 14.7359 31.4328C14.7359 28.1773 17.0934 25.2585 20.2741 25.2585ZM76.0299 26.9985L76.7222 32.1625L73.3918 32.6115L72.6995 27.4476L76.0299 26.9985ZM20.2741 28.6263C19.2076 28.6263 18.1037 29.7302 18.1037 31.4328C18.1037 33.1354 19.2076 34.2393 20.2741 34.2393C21.3405 34.2393 22.4444 33.1354 22.4444 31.4328C22.4444 29.7302 21.3405 28.6263 20.2741 28.6263ZM64.6542 33.1915C64.0555 33.1915 63.2697 33.9212 63.2697 35.2122C63.2697 36.5032 64.0555 37.2329 64.6542 37.2329C65.2529 37.2329 66.0387 36.5032 66.0387 35.2122C66.0387 33.9212 65.2529 33.1915 64.6542 33.1915ZM88.5656 33.678L85.6842 34.52C86.5449 37.9065 86.9939 41.4052 86.9939 44.904C86.9939 53.7164 84.2249 62.3043 79.0609 69.4515L81.4184 71.3038C86.9939 63.6327 89.9875 54.39 89.9875 44.904C89.9875 41.1246 89.5198 37.3452 88.5656 33.678ZM82.279 35.549L59.0786 42.4904L60.9496 43.8188L59.0038 46.5505L54.9998 43.7066L48.6759 45.5963C57.1141 53.6229 66.9555 60.1339 76.2544 67.2438C80.7074 60.7327 82.1293 52.9119 83.439 44.904C83.9442 41.7794 83.0461 38.5987 82.279 35.549ZM0.19262 43.7814C0.17391 44.1556 0.19262 44.5298 0.17391 44.904C-0.776558 58.0571 1.86904 70.8548 15.6228 78.8065L17.505 76.4678C8.39696 68.516 3.17125 57.0094 3.17312 44.904V43.9685L0.19262 43.7814ZM6.73551 44.193V44.904C6.73551 49.0202 7.3941 53.099 8.6907 57.0094L10.7469 52.6125L13.7967 54.0345L10.4045 61.294C12.6385 66.0276 15.8136 70.2374 19.7315 73.6987L41.7157 46.3821L17.5611 44.8666L12.9585 49.4505L10.5785 47.0557L13.052 44.5859L6.73551 44.193ZM75.506 46.644C75.9363 46.6253 76.3667 46.6815 76.797 46.8311C78.1441 47.2428 79.0983 48.3466 79.5474 49.6002C79.9964 50.8164 79.9964 52.2009 79.5661 53.5667C79.1544 54.9139 78.3312 56.0552 77.2835 56.8223C76.1983 57.552 74.795 57.9262 73.4292 57.4958C72.9427 57.3462 72.5124 57.1029 72.1382 56.8036L70.6788 58.4688L65.5149 54.0158L67.7226 51.4712L70.4356 53.81C70.2485 52.8183 70.3233 51.7706 70.6414 50.7602C71.0717 49.3944 71.8763 48.2718 72.9427 47.5234C73.6911 46.9995 74.5892 46.6627 75.506 46.644ZM26.6542 47.6731L32.2111 49.7686L31.0136 52.9119L25.4567 50.8164L26.6542 47.6731ZM46.992 48.5337L47.9836 64.3624C48.8817 64.5495 49.7049 64.8489 50.4346 65.2792C51.6882 66.0089 52.7546 67.2625 52.7546 68.8528C52.7546 70.4432 51.6882 71.6967 50.4346 72.4264C49.8546 72.7632 49.2184 73.0251 48.5449 73.2122L49.1623 83.035C51.2391 82.8105 53.2785 82.4176 55.2805 81.875L55.9353 76.4304L59.2657 76.842L58.798 80.715C64.7477 78.451 70.024 74.7278 74.1776 69.9006C70.3046 66.8508 65.6833 64.6805 62.54 60.7514L61.1929 64.5121L58.0121 63.3895L59.7335 58.5436C54.4572 55.9242 51.1643 51.9203 46.992 48.5337ZM43.6803 49.3383L22.3509 75.7942C28.9368 80.6401 36.9073 83.2595 45.0835 83.2595H45.7945L45.1771 73.4929C43.83 73.3993 42.5951 73.0439 41.5661 72.4264C40.3125 71.6967 39.246 70.4432 39.246 68.8528C39.246 67.2625 40.3125 66.0089 41.5661 65.2792C42.4454 64.7553 43.4932 64.4185 44.6158 64.2689L43.6803 49.3383ZM75.5996 50.0118C75.4125 49.9931 75.1879 50.068 74.8886 50.2551C74.4957 50.5357 74.084 51.0783 73.8595 51.7706C73.6537 52.4629 73.6911 53.1364 73.8408 53.5854C74.0092 54.0345 74.2337 54.2216 74.4395 54.2777C74.6641 54.3526 74.9447 54.3151 75.3376 54.0532C75.7118 53.7913 76.1421 53.2487 76.3667 52.5564C76.5725 51.8641 76.535 51.1719 76.3854 50.7415C76.217 50.2925 75.9925 50.1054 75.7867 50.0305C75.7305 50.0118 75.6744 50.0118 75.5996 50.0118ZM20.7231 55.6061C21.5276 55.6248 22.3322 55.8119 23.0806 56.1674C25.7561 57.4584 27.0658 60.6765 25.7748 63.3521C24.4838 66.0463 21.1534 67.0379 18.4779 65.747C15.7986 64.456 14.5002 61.2566 15.7874 58.5623C16.7192 56.6352 18.6837 55.5874 20.7231 55.6061ZM20.5547 58.9552C19.8063 58.9739 19.1328 59.3668 18.8147 60.0217C18.3656 60.9759 18.796 62.1733 19.9373 62.7159C21.0786 63.2585 22.276 62.8469 22.7438 61.8927C23.1928 60.9572 22.7625 59.7598 21.6212 59.2172C21.2657 59.0301 20.8915 58.9552 20.5547 58.9552ZM46.0003 67.5431C44.8777 67.5431 43.8674 67.8425 43.2687 68.1793C42.6699 68.5347 42.6138 68.7967 42.6138 68.8528C42.6138 68.9089 42.6699 69.1709 43.2687 69.5264C43.8674 69.8632 44.8777 70.1625 46.0003 70.1625C47.1229 70.1625 48.1333 69.8632 48.732 69.5264C49.3307 69.1709 49.3868 68.9089 49.3868 68.8528C49.3868 68.7967 49.3307 68.5347 48.732 68.1793C48.1333 67.8425 47.1229 67.5431 46.0003 67.5431ZM76.9654 72.1084C69.9678 80.3033 60.1077 85.486 49.3868 86.5899L49.5739 89.5835C61.5483 90.2009 72.8866 87.4693 79.3228 73.9606L76.9654 72.1084ZM30.9575 72.6697L36.215 73.1561L35.9156 76.5239L30.6581 76.0375L30.9575 72.6697ZM20.1244 78.5633L18.2534 80.9021C25.0077 89.3216 35.1298 90.5751 45.0835 89.808C45.4577 89.7706 45.8319 89.808 46.2061 89.7893L46.019 86.7957C45.701 86.8144 45.4016 86.8144 45.0835 86.8144C36.1027 86.8144 27.3465 83.9144 20.1244 78.5633Z" fill="white"/>
</svg>
