<svg width="130" height="91" viewBox="0 0 130 91" fill="none" xmlns="http://www.w3.org/2000/svg">
<path d="M129.728 24.0224L121.311 90H92.8825L84.5 23.693H119.206L126.066 0L129.955 1.17214L123.373 23.9732L129.728 24.0224Z" fill="white"/>
<path d="M40.4966 11C32.9157 11.0154 25.496 13.1896 19.1061 17.2683L20.6197 19.4586C26.5911 15.6717 33.5106 13.661 40.5798 13.661C45.1207 13.661 49.6284 14.4892 53.8699 16.1091L54.9178 13.6626C50.3425 11.9023 45.4821 10.9997 40.5798 11H40.4966ZM57.6789 14.8451L56.631 17.2916C65.663 21.6007 72.5825 29.3608 75.826 38.8239L78.3709 38.0588C75.9757 27.2153 69.0562 18.5339 57.6789 14.8451ZM40.48 16.8209C34.0928 16.8392 27.822 18.6536 22.4161 22.058L40.2638 47.8379C45.4534 38.5578 49.3622 28.8784 52.6224 19.0162C48.7801 17.5643 44.6883 16.8209 40.5798 16.8209H40.48ZM45.3702 18.306L48.5472 22.2742L46.2185 24.1452L43.0415 20.1754L45.3702 18.306ZM16.6443 18.9713C4.18256 25.6686 1.43139 35.8136 0.859199 46.9232L3.51722 47.0895C4.58009 36.7949 9.88449 27.3983 18.158 21.1599L16.6443 18.9713ZM34.9577 20.1471C36.3216 20.1471 37.5858 20.4997 38.6004 21.1782C39.6151 21.8551 40.4301 22.9661 40.4301 24.3049C40.4301 25.652 39.6151 26.7497 38.6004 27.4315C37.5858 28.1134 36.3216 28.4627 34.9577 28.4627C33.5938 28.4627 32.3296 28.1134 31.315 27.4315C30.3003 26.7497 29.4853 25.652 29.4853 24.3049C29.4853 22.9661 30.3003 21.8551 31.315 21.1782C32.3296 20.4997 33.5938 20.1471 34.9577 20.1471ZM55.3835 20.1987C52.3396 30.0593 48.4474 39.5723 43.2245 48.5531L54.5851 45.1603C54.0529 44.3454 53.7535 43.3475 53.7535 42.2998C53.7535 39.8051 55.5 37.51 57.9784 37.51C60.4567 37.51 62.2032 39.8051 62.2032 42.2998C62.2032 42.4993 62.1866 42.6989 62.17 42.9151L72.7987 39.7386C69.8214 31.1735 63.5505 24.1353 55.3835 20.1987ZM34.9577 23.1407C34.126 23.1407 33.4108 23.3802 32.9783 23.6663C32.5459 23.9506 32.4793 24.1735 32.4793 24.3049C32.4793 24.4363 32.5459 24.6591 32.9783 24.9435C33.4108 25.2362 34.126 25.4691 34.9577 25.4691C35.7894 25.4691 36.5046 25.2362 36.9371 24.9435C37.3695 24.6591 37.4361 24.4363 37.4361 24.3049C37.4361 24.1735 37.3695 23.9506 36.9371 23.6663C36.5046 23.3802 35.7894 23.1407 34.9577 23.1407ZM19.9544 23.7594C12.476 29.4439 7.67058 37.959 6.67424 47.2891C17.0934 47.3889 27.4893 47.5885 37.6024 49.2183L34.4254 44.6281L31.3483 46.3079L29.9178 43.6801L32.7122 42.1501L23.2311 28.4959L19.3888 31.5394L17.5259 29.1778L21.5179 26.0179L19.9544 23.7594ZM58.81 26.0512L60.8393 29.394L58.2778 30.9573L56.2485 27.6145L58.81 26.0512ZM41.0954 29.8929L42.3928 32.5872L37.3695 34.9654L36.0721 32.2712L41.0954 29.8929ZM18.5239 33.452C21.3516 33.452 23.4474 36.0465 23.4474 38.9403C23.4474 41.8341 21.3516 44.4285 18.5239 44.4285C15.6962 44.4285 13.6004 41.8341 13.6004 38.9403C13.6004 36.0465 15.6962 33.452 18.5239 33.452ZM68.0915 34.9987L68.7069 39.5889L65.7462 39.988L65.1307 35.3978L68.0915 34.9987ZM18.5239 36.4456C17.5758 36.4456 16.5944 37.4268 16.5944 38.9403C16.5944 40.4537 17.5758 41.4349 18.5239 41.4349C19.472 41.4349 20.4534 40.4537 20.4534 38.9403C20.4534 37.4268 19.472 36.4456 18.5239 36.4456ZM57.9784 40.5036C57.4461 40.5036 56.7475 41.1522 56.7475 42.2998C56.7475 43.4473 57.4461 44.0959 57.9784 44.0959C58.5106 44.0959 59.2092 43.4473 59.2092 42.2998C59.2092 41.1522 58.5106 40.5036 57.9784 40.5036ZM79.2359 40.936L76.6743 41.6844C77.4395 44.6946 77.8387 47.8047 77.8387 50.9147C77.8387 58.7479 75.3769 66.3816 70.7861 72.7347L72.8819 74.3812C77.8387 67.5624 80.5 59.3466 80.5 50.9147C80.5 47.5552 80.0842 44.1957 79.2359 40.936ZM73.647 42.5991L53.0216 48.7693L54.6849 49.9501L52.9551 52.3782L49.3955 49.8503L43.7734 51.53C51.2751 58.6648 60.0243 64.4524 68.2911 70.7722C72.2498 64.9846 73.514 58.0328 74.6783 50.9147C75.1274 48.1373 74.329 45.31 73.647 42.5991ZM0.671241 49.9168C0.654608 50.2494 0.671241 50.5821 0.654608 50.9147C-0.19037 62.6063 2.1616 73.982 14.3888 81.0503L16.0621 78.9714C7.96499 71.9031 3.31928 61.675 3.32094 50.9147V50.0831L0.671241 49.9168ZM6.48795 50.2827V50.9147C6.48795 54.5735 7.07344 58.1991 8.22614 61.675L10.0542 57.7667L12.7654 59.0307L9.74976 65.4835C11.7358 69.6912 14.5585 73.4332 18.0415 76.51L37.5858 52.2285L16.112 50.8814L12.0202 54.956L9.90445 52.8273L12.1034 50.6319L6.48795 50.2827ZM67.6257 52.4614C68.0083 52.4447 68.3909 52.4946 68.7734 52.6277C69.971 52.9936 70.8194 53.9748 71.2186 55.0891C71.6178 56.1701 71.6178 57.4008 71.2352 58.6149C70.8692 59.8123 70.1374 60.8268 69.2059 61.5087C68.2412 62.1573 66.9937 62.4899 65.7794 62.1074C65.347 61.9744 64.9644 61.7582 64.6317 61.4921L63.3343 62.9722L58.7435 59.014L60.7062 56.7522L63.1181 58.8311C62.9517 57.9496 63.0183 57.0183 63.301 56.1202C63.6836 54.9061 64.3988 53.9083 65.347 53.243C66.0123 52.7774 66.8107 52.478 67.6257 52.4614ZM24.1959 53.3761L29.136 55.2388L28.0715 58.0328L23.1313 56.1701L24.1959 53.3761ZM42.2764 54.1411L43.158 68.211C43.9564 68.3773 44.6883 68.6434 45.337 69.026C46.4514 69.6746 47.3995 70.7889 47.3995 72.2025C47.3995 73.6161 46.4514 74.7304 45.337 75.379C44.8213 75.6784 44.2558 75.9112 43.657 76.0775L44.2059 84.8089C46.0522 84.6093 47.8652 84.2601 49.645 83.7778L50.2272 78.9381L53.1879 79.304L52.7721 82.7466C58.0615 80.7343 62.7521 77.4247 66.4448 73.1338C63.0016 70.423 58.8932 68.4938 56.0988 65.0012L54.9012 68.3441L52.0735 67.3462L53.6038 63.0388C48.9131 60.7104 45.9857 57.1513 42.2764 54.1411ZM39.3323 54.8563L20.3702 78.3726C26.2252 82.6801 33.311 85.0085 40.5798 85.0085H41.2119L40.663 76.327C39.4654 76.2439 38.3676 75.9279 37.4527 75.379C36.3383 74.7304 35.3902 73.6161 35.3902 72.2025C35.3902 70.7889 36.3383 69.6746 37.4527 69.026C38.2345 68.5603 39.166 68.2609 40.164 68.1279L39.3323 54.8563ZM67.7089 55.455C67.5426 55.4383 67.343 55.5049 67.0768 55.6712C66.7275 55.9206 66.3616 56.4029 66.162 57.0183C65.979 57.6336 66.0123 58.2324 66.1454 58.6315C66.2951 59.0307 66.4947 59.197 66.6776 59.2469C66.8772 59.3134 67.1267 59.2801 67.476 59.0473C67.8087 58.8145 68.1913 58.3321 68.3909 57.7168C68.5738 57.1014 68.5406 56.4861 68.4075 56.1036C68.2578 55.7044 68.0582 55.5381 67.8752 55.4716C67.8253 55.455 67.7754 55.455 67.7089 55.455ZM18.9231 60.4277C19.6383 60.4443 20.3536 60.6106 21.0189 60.9266C23.3975 62.0742 24.5618 64.9347 23.4141 67.313C22.2664 69.7078 19.3057 70.5893 16.9271 69.4417C14.5452 68.2942 13.3908 65.4503 14.5352 63.0554C15.3635 61.3424 17.11 60.411 18.9231 60.4277ZM18.7734 63.4046C18.1081 63.4213 17.5092 63.7705 17.2265 64.3526C16.8273 65.2008 17.2098 66.2652 18.2245 66.7475C19.2391 67.2298 20.3037 66.8639 20.7195 66.0157C21.1187 65.1842 20.7361 64.1198 19.7215 63.6375C19.4055 63.4712 19.0728 63.4046 18.7734 63.4046ZM41.3948 71.0383C40.3968 71.0383 39.4986 71.3044 38.9664 71.6038C38.4341 71.9198 38.3842 72.1526 38.3842 72.2025C38.3842 72.2524 38.4341 72.4852 38.9664 72.8012C39.4986 73.1006 40.3968 73.3667 41.3948 73.3667C42.3928 73.3667 43.291 73.1006 43.8233 72.8012C44.3556 72.4852 44.4055 72.2524 44.4055 72.2025C44.4055 72.1526 44.3556 71.9198 43.8233 71.6038C43.291 71.3044 42.3928 71.0383 41.3948 71.0383ZM68.9231 75.0963C62.7022 82.3807 53.9364 86.9876 44.4055 87.9688L44.5718 90.6298C55.2172 91.1786 65.2971 88.7505 71.019 76.7428L68.9231 75.0963ZM28.0216 75.5952L32.6956 76.0277L32.4294 79.0213L27.7554 78.5889L28.0216 75.5952ZM18.3908 80.834L16.7275 82.9129C22.7321 90.3969 31.7308 91.5112 40.5798 90.8293C40.9125 90.7961 41.2451 90.8293 41.5778 90.8127L41.4115 88.1517C41.1287 88.1684 40.8626 88.1684 40.5798 88.1684C32.5958 88.1684 24.8113 85.5905 18.3908 80.834Z" fill="white"/>
</svg>
