<svg width="60" height="60" viewBox="0 0 60 60" fill="none" xmlns="http://www.w3.org/2000/svg">
<path id="Vector" d="M12.0667 25.9667C16.8667 35.4 24.6 43.1333 34.0333 47.9333L41.3667 40.6C42.3 39.6667 43.6 39.4 44.7667 39.7667C48.5 41 52.5 41.6667 56.6667 41.6667C57.5507 41.6667 58.3986 42.0179 59.0237 42.643C59.6488 43.2681 60 44.1159 60 45V56.6667C60 57.5507 59.6488 58.3986 59.0237 59.0237C58.3986 59.6488 57.5507 60 56.6667 60C41.6377 60 27.2243 54.0298 16.5973 43.4027C5.97022 32.7757 0 18.3623 0 3.33333C0 2.44928 0.351189 1.60143 0.976311 0.976311C1.60143 0.351189 2.44928 0 3.33333 0H15C15.8841 0 16.7319 0.351189 17.357 0.976311C17.9821 1.60143 18.3333 2.44928 18.3333 3.33333C18.3333 7.5 19 11.5 20.2333 15.2333C20.6 16.4 20.3333 17.7 19.4 18.6333L12.0667 25.9667Z" fill="white"/>
</svg>
