<svg width="62" height="60" viewBox="0 0 62 60" fill="none" xmlns="http://www.w3.org/2000/svg">
<path id="Vector" d="M56.5292 13.9012C47.5584 -0.00568779 29.1875 -4.12625 14.9802 4.50118C1.1162 13.1286 -3.34774 31.9287 5.62307 45.7926L6.35275 46.9086L3.34818 58.1543L14.5939 55.1498L15.7099 55.8794C20.5601 58.4977 25.8396 60 31.0761 60C36.699 60 42.3218 58.4977 47.1721 55.4931C61.036 46.4794 65.1566 28.0656 56.5292 13.8154V13.9012ZM48.6744 42.831C47.1721 45.063 45.2835 46.5653 42.6652 46.9516C41.1629 46.9516 39.2743 47.6812 31.8058 44.7196C25.4533 41.715 20.1738 36.8218 16.4395 31.199C14.2076 28.5807 13.0487 25.1898 12.7053 21.799C12.7053 18.7944 13.8213 16.1761 15.7099 14.2875C16.4395 13.5578 17.2122 13.1715 17.9418 13.1715H19.8304C20.5601 13.1715 21.3327 13.1715 21.719 14.6738C22.4487 16.5624 24.3373 21.0693 24.3373 21.4556C24.7236 21.8419 24.5519 24.7177 22.835 26.3487C21.8907 27.4218 21.719 27.4647 22.1053 28.2373C23.6076 30.4693 25.4962 32.7442 27.3419 34.6328C29.5738 36.5214 31.8487 38.0237 34.467 39.1397C35.1967 39.526 35.9693 39.526 36.3556 38.7534C36.7419 38.0237 38.5876 36.1351 39.3602 35.3625C40.0899 34.6328 40.4762 34.6328 41.2488 34.9762L47.2579 37.9808C47.9876 38.3671 48.7602 38.7104 49.1465 39.0967C49.5328 40.2127 49.5328 41.715 48.7602 42.831H48.6744Z" fill="white"/>
</svg>
